<?xml version="1.0" encoding="UTF-8"?>
<svg width="99px" height="99px" viewBox="0 0 99 99" version="1.1" xmlns="http://www.w3.org/2000/svg" xmlns:xlink="http://www.w3.org/1999/xlink">
    <!-- Generator: Sketch 55.2 (78181) - https://sketchapp.com -->
    <title>benefits-04</title>
    <desc>Created with Sketch.</desc>
    <g id="benefits-04" stroke="none" stroke-width="1" fill="none" fill-rule="evenodd">
        <path d="M79.6856668,39.9810093 L79.6856668,15.7680093 C82.1882287,15.4856687 84.0346981,13.3028787 83.8936405,10.7935845 C83.7525829,8.28429037 81.6730609,6.32127439 79.1545563,6.32000927 L58.0504313,6.32000927 C55.5319267,6.32127439 53.4524047,8.28429037 53.3113471,10.7935845 C53.1702895,13.3028787 55.0167589,15.4856687 57.5193208,15.7680093 L57.5193208,39.9810093 C52.7191289,41.8499649 48.4668408,44.8932442 45.153466,48.8310093 C44.6138399,49.5012207 44.7089272,50.4787216 45.367652,51.0328493 C46.0263769,51.586977 47.007893,51.5151286 47.5785364,50.8710093 C50.7663609,47.068311 54.9297531,44.2015076 59.6237208,42.5770093 C60.2587988,42.3538994 60.6842679,41.7558832 60.6859417,41.0840093 L60.6859417,15.8010093 L69.6546938,15.8010093 C70.2296722,15.8154476 70.7672758,15.5175943 71.0590231,15.0229563 C71.3507703,14.5283182 71.3507703,13.9147003 71.0590231,13.4200623 C70.7672758,12.9254242 70.2296722,12.6275709 69.6546938,12.6420093 L58.0504313,12.6420093 C57.1759931,12.6420093 56.4671209,11.9346192 56.4671209,11.0620093 C56.4671209,10.1893994 57.1759931,9.48200927 58.0504313,9.48200927 L79.1545563,9.48200927 C80.0289945,9.48200927 80.7378667,10.1893994 80.7378667,11.0620093 C80.7378667,11.9346192 80.0289945,12.6420093 79.1545563,12.6420093 L75.9879355,12.6420093 C75.412957,12.6275709 74.8753534,12.9254242 74.5836061,13.4200623 C74.2918589,13.9147003 74.2918589,14.5283182 74.5836061,15.0229563 C74.8753534,15.5175943 75.412957,15.8154476 75.9879355,15.8010093 L76.5190459,15.8010093 L76.5190459,41.0870093 C76.5162876,41.7600605 76.9434746,42.3600893 77.5812668,42.5790093 C86.9939619,45.8476732 93.8914975,53.9511087 95.6010469,63.7491973 C97.3105962,73.5472858 93.5634963,83.5002162 85.8117657,89.7511819 C78.0600351,96.0021476 67.5218911,97.5687828 58.2809132,93.8440093 C57.7551779,93.6160578 57.1469675,93.6900718 56.6915353,94.037423 C56.2361031,94.3847742 56.0048655,94.9509944 56.0872643,95.5170718 C56.1696631,96.0831492 56.5527773,96.5603173 57.0884199,96.7640093 C67.2529782,100.792179 78.7989228,99.1029716 87.3770082,92.3326957 C95.9550936,85.5624198 100.262105,74.7396411 98.6756317,63.9411957 C97.0891588,53.1427503 89.850225,44.0091788 79.6856668,39.9810093 L79.6856668,39.9810093 Z M80.3971543,72.4310093 C81.2715925,72.4310093 81.9804648,73.1383994 81.9804648,74.0110093 C81.9804648,74.8836192 81.2715925,75.5910093 80.3971543,75.5910093 C79.5227161,75.5910093 78.8138439,74.8836192 78.8138439,74.0110093 C78.8154982,73.1390841 79.5234023,72.4326601 80.3971543,72.4310093 Z M74.0639127,78.7510064 C74.7043019,78.7510064 75.2816344,79.1359639 75.5267008,79.7263694 C75.7717671,80.316775 75.6363058,80.9963612 75.1834822,81.448238 C74.7306586,81.9001148 74.0496485,82.0352929 73.458006,81.7907389 C72.8663634,81.546185 72.4805994,80.9700596 72.4805994,80.3310093 C72.4798022,79.911723 72.6463578,79.5093797 72.9434597,79.212899 C73.2405616,78.9164183 73.6437479,78.7502109 74.0639127,78.7510064 Z M59.6638046,87.5410093 C58.8723827,87.1709787 57.930211,87.5112424 57.559405,88.3010094 C57.188599,89.0907765 57.5295753,90.0309784 58.320997,90.4010093 C67.9231982,94.8747556 79.3237143,92.6174019 86.4867867,84.8240555 C93.6498591,77.0307092 94.9206843,65.5017789 89.6264512,56.3410093 C89.3006285,55.7860124 88.6714872,55.481971 88.0331198,55.5710093 L87.4619255,55.6510093 C87.3907309,55.6629294 87.3204243,55.6796341 87.2514855,55.7010093 C85.5047039,56.1849305 83.8885835,57.052804 82.5215962,58.2410093 C81.4393742,59.3089181 79.9520784,59.8654879 78.4330477,59.7710093 C76.9502931,59.7683626 75.5378564,59.1399073 74.5449184,58.0410093 C72.976339,56.4543385 70.8359946,55.5611375 68.6024938,55.5611375 C66.368993,55.5611375 64.2286486,56.4543385 62.6600692,58.0410093 C61.6671312,59.1399073 60.2546945,59.7683626 58.7719399,59.7710093 C57.2502684,59.8632525 55.7607747,59.307223 54.6733705,58.2410093 C53.3118422,57.0504424 51.6984003,56.1821677 49.9535021,55.7010093 C49.8845633,55.6796341 49.8142567,55.6629294 49.7430621,55.6510093 L49.1718678,55.5710093 C48.5340287,55.4852947 47.9066447,55.788487 47.5785364,56.3410093 C47.5690422,56.3663455 47.5555064,56.3899837 47.5384526,56.4110093 C47.1068427,57.1683648 47.3659431,58.1312726 48.1196678,58.5710093 C48.4373268,58.7552285 48.8096607,58.8224623 49.1718678,58.7610093 L49.1919097,58.7610093 C50.4902432,59.1412667 51.6880466,59.8038039 52.6992429,60.7010093 C56.1557696,63.7745089 61.4045039,63.6610241 64.7243854,60.4410093 C65.7150633,59.3460543 67.1241845,58.7211323 68.6024938,58.7211323 C70.0808031,58.7211323 71.4899243,59.3460543 72.4806022,60.4410093 C75.8004837,63.6610241 81.049218,63.7745089 84.5057447,60.7010093 C85.3680801,59.9421743 86.363504,59.3488809 87.4418836,58.9510093 C90.7446289,65.4819062 90.4172939,73.2547786 86.5770988,79.486125 C82.7369037,85.7174714 75.9332259,89.5158369 68.6024938,89.5210093 C65.512505,89.532083 62.4588969,88.8556814 59.6638046,87.5410093 L59.6638046,87.5410093 Z M38.2089463,40.8180093 L38.2089463,9.44900927 C40.715497,9.17103531 42.5671342,6.98636734 42.4258967,4.47360856 C42.2846593,1.96084978 40.1998148,-0.00348025823 37.6778358,4.62963897e-06 L16.5737108,4.62963897e-06 C14.0517318,-0.00348025823 11.9668873,1.96084978 11.8256499,4.47360856 C11.6844125,6.98636734 13.5360496,9.17103531 16.0426004,9.44900927 L16.0426004,34.7650093 C16.0426004,35.6376192 16.7514726,36.3450093 17.6259108,36.3450093 C18.500349,36.3450093 19.2092212,35.6376192 19.2092212,34.7650093 L19.2092212,9.47900927 L28.1879942,9.47900927 C28.7629727,9.49344761 29.3005763,9.19559433 29.5923236,8.70095627 C29.8840708,8.20631821 29.8840708,7.59270033 29.5923236,7.09806227 C29.3005763,6.60342421 28.7629727,6.30557094 28.1879942,6.32000927 L16.5737108,6.32000927 C15.6992726,6.32000927 14.9904004,5.61261918 14.9904004,4.74000927 C14.9904004,3.86739937 15.6992726,3.16000927 16.5737108,3.16000927 L37.6778358,3.16000927 C38.552274,3.16000927 39.2611462,3.86739937 39.2611462,4.74000927 C39.2611462,5.61261918 38.552274,6.32000927 37.6778358,6.32000927 L34.511215,6.32000927 C33.9362365,6.30557094 33.3986329,6.60342421 33.1068856,7.09806227 C32.8151384,7.59270033 32.8151384,8.20631821 33.1068856,8.70095627 C33.3986329,9.19559433 33.9362365,9.49344761 34.511215,9.47900927 L35.0423254,9.47900927 L35.0423254,41.0840093 C35.0421387,41.2599301 35.0726576,41.4345392 35.132514,41.6000093 L50.5146754,85.9910093 C51.4466239,88.6710093 51.2361839,91.1610093 49.9234392,92.9910093 C48.3786738,94.9384125 45.9735232,96.0038871 43.489988,95.8410093 L10.7705775,95.8410093 C7.9286355,95.8410093 5.64185424,94.8310093 4.33211581,92.9910093 C3.02237738,91.1510093 2.81293948,88.6710093 3.74188174,85.9910093 L19.1290536,41.6010093 C19.3953159,40.7811411 18.9549477,39.8994393 18.1386376,39.6180061 C17.3223275,39.336573 16.4304679,39.7589724 16.1327889,40.5680093 L0.74962546,84.9610093 C-0.523035448,88.6310093 -0.166289556,92.1410093 1.75172066,94.8310093 C3.66973088,97.5210093 6.87342925,99.0010093 10.7705775,99.0010093 L43.489988,99.0010093 C47.3781174,99.0010093 50.584822,97.5210093 52.4988239,94.8310093 C54.4128257,92.1410093 54.7836009,88.6310093 53.51094,84.9610093 L38.2089463,40.8180093 Z M13.6455886,73.4710093 C13.2458432,73.1520017 12.7138703,73.050921 12.2246176,73.2010093 C11.7344258,73.3456425 11.3448657,73.7183612 11.1794323,74.2010093 L6.73413802,87.0210093 C5.96681335,88.3138795 6.03498309,89.9365401 6.90805443,91.1607834 C7.78112578,92.3850266 9.29511277,92.9809071 10.7705775,92.6810093 L43.489988,92.6810093 C44.9641492,92.9769052 46.4747561,92.3794099 47.3454747,91.1560359 C48.2161934,89.932662 48.2839509,88.3125294 47.5184107,87.0210093 L43.079129,74.2010093 C42.9101283,73.7181055 42.5185082,73.3459138 42.026929,73.2010093 C41.5402294,73.0514143 41.0108631,73.1525704 40.6139748,73.4710093 C39.5920394,74.3179558 38.2812339,74.7372533 36.9563273,74.6410093 C35.4749087,74.6419217 34.0623263,74.0170346 33.0681979,72.9210093 C31.5028662,71.328306 29.3613064,70.430913 27.1257733,70.430913 C24.8902402,70.430913 22.7486805,71.328306 21.1833488,72.9210093 C20.1919388,74.0149713 18.7833016,74.6397233 17.3052403,74.6410093 C15.9792808,74.7409631 14.6664908,74.3212608 13.6455886,73.4710093 L13.6455886,73.4710093 Z M23.2476649,75.3210093 C24.2338376,74.218633 25.644941,73.5891486 27.1257733,73.5910052 C28.608528,73.5936559 30.0209647,74.2221112 31.0139027,75.3210093 C32.5818838,76.9085792 34.7226051,77.8019838 36.9563273,77.8010093 C38.2522399,77.8394881 39.5411173,77.5972628 40.7342262,77.0910052 L44.532167,88.0610093 C44.6875865,88.4588345 44.7592216,88.8843428 44.742607,89.3110093 C44.3448205,89.469237 43.9177501,89.5408348 43.489988,89.5210093 L10.7705775,89.5210093 C10.5111128,89.7406693 10.1498498,89.7959109 9.83637854,89.6638599 C9.52290728,89.5318089 9.31059217,89.2349453 9.2873477,88.8961929 C9.26410322,88.5574405 9.43388645,88.2344676 9.7263943,88.0610093 L13.5263393,77.0910052 C14.7193938,77.5986007 16.0088944,77.8408789 17.3052403,77.8010093 C19.5385349,77.799858 21.6784676,76.9067827 23.2476649,75.3210093 L23.2476649,75.3210093 Z" fill="#0176BF" fill-rule="nonzero"></path>
    </g>
</svg>