<svg width="67" height="82" viewBox="0 0 67 82" fill="none" xmlns="http://www.w3.org/2000/svg">
<path d="M11.2473 0.845703C5.11575 0.845703 0.145142 6.83077 0.145142 14.2137V24.9081C0.145142 55.9165 21.0217 81.0537 46.7742 81.0537H55.6559C61.7874 81.0537 66.758 75.0686 66.758 67.6857V60.2959C66.758 57.2581 65.3325 54.4808 63.0757 53.122L52.347 46.6628C48.721 44.4799 44.3304 46.6699 43.0485 51.3004L41.7262 56.0769C41.2237 57.8918 39.6775 58.9724 38.1196 58.5971C28.368 56.2491 20.7456 47.0708 18.7953 35.329C18.4837 33.4531 19.381 31.5914 20.8883 30.9864L25.8115 29.0104C29.1137 27.685 31.0117 23.5218 30.1675 19.4558L27.565 6.92119C26.8236 3.35058 24.1592 0.845703 21.1025 0.845703H11.2473Z" fill="white"/>
</svg>
