<svg width="50" height="50" viewBox="0 0 50 50" fill="none" xmlns="http://www.w3.org/2000/svg">
<path d="M25 48C31.3512 48 37.1012 45.4256 41.2634 41.2634C45.4256 37.1012 48 31.3512 48 25C48 18.6488 45.4256 12.8988 41.2634 8.73654C37.1012 4.57437 31.3512 2 25 2C18.6488 2 12.8988 4.57437 8.73654 8.73654C4.57437 12.8988 2 18.6488 2 25C2 31.3512 4.57437 37.1012 8.73654 41.2634C12.8988 45.4256 18.6488 48 25 48Z" fill="#E33725" stroke="white" stroke-width="4" stroke-linejoin="round"/>
<path fill-rule="evenodd" clip-rule="evenodd" d="M25 39.9502C26.5878 39.9502 27.875 38.663 27.875 37.0752C27.875 35.4874 26.5878 34.2002 25 34.2002C23.4122 34.2002 22.125 35.4874 22.125 37.0752C22.125 38.663 23.4122 39.9502 25 39.9502Z" fill="white"/>
<path d="M25 11.2002V29.6002" stroke="white" stroke-width="4" stroke-linecap="round" stroke-linejoin="round"/>
</svg>
