<svg width="42" height="42" viewBox="0 0 42 42" fill="none" xmlns="http://www.w3.org/2000/svg">
<path d="M21 25.2C25.6392 25.2 29.4 21.4392 29.4 16.8C29.4 12.1608 25.6392 8.4 21 8.4C16.3608 8.4 12.6 12.1608 12.6 16.8C12.6 21.4392 16.3608 25.2 21 25.2ZM21 12.6C23.3196 12.6 25.2 14.4804 25.2 16.8C25.2 19.1196 23.3196 21 21 21C18.6804 21 16.8 19.1196 16.8 16.8C16.8 14.4804 18.6804 12.6 21 12.6Z" fill="#ED6C00"/>
<path d="M4.2 42C1.88041 42 0 40.1196 0 37.8V4.2C0 1.88041 1.8804 0 4.2 0H37.8C40.1196 0 42 1.8804 42 4.2V37.8C42 40.1196 40.1196 42 37.8 42H4.2ZM4.2 4.2V37.8H10.5C10.5 32.001 15.201 27.3 21 27.3C26.799 27.3 31.5 32.001 31.5 37.8H37.8V4.2H4.2ZM27.3 37.8C27.3 34.3206 24.4794 31.5 21 31.5C17.5206 31.5 14.7 34.3206 14.7 37.8H27.3Z" fill="#ED6C00"/>
</svg>
