<svg width="50" height="50" viewBox="0 0 50 50" fill="none" xmlns="http://www.w3.org/2000/svg">
<path d="M25 45.8334C21.8502 45.8422 18.7401 45.1296 15.9084 43.75C14.872 43.2459 13.8791 42.6571 12.9396 41.9896L12.6542 41.7812C10.0705 39.8742 7.95812 37.4005 6.47921 34.55C4.9495 31.5997 4.1561 28.3232 4.16661 25C4.16661 13.4941 13.4941 4.16666 25 4.16666C36.506 4.16666 45.8335 13.4941 45.8335 25C45.8439 28.3216 45.0512 31.5966 43.523 34.5458C42.0461 37.3946 39.9367 39.8675 37.3563 41.775C36.3829 42.4875 35.3499 43.1148 34.2688 43.65L34.1021 43.7333C31.2686 45.1202 28.1547 45.8386 25 45.8334ZM25 35.4166C21.8781 35.4105 19.016 37.1542 17.5896 39.9312C22.2592 42.2441 27.7409 42.2441 32.4105 39.9312V39.9208C30.9823 37.1468 28.1201 35.4071 25 35.4166ZM25 31.25C29.5128 31.2559 33.6738 33.6877 35.8938 37.6167L35.925 37.5896L35.9542 37.5646L35.9188 37.5958L35.898 37.6125C41.1667 33.0606 43.0506 25.7132 40.6222 19.1877C38.1938 12.6622 31.9648 8.33398 25.0021 8.33398C18.0394 8.33398 11.8104 12.6622 9.38203 19.1877C6.95361 25.7132 8.83755 33.0606 14.1063 37.6125C16.3277 33.6855 20.4883 31.2555 25 31.25ZM25 29.1667C20.3977 29.1667 16.6667 25.4357 16.6667 20.8333C16.6667 16.2309 20.3977 12.5 25 12.5C29.6024 12.5 33.3334 16.2309 33.3334 20.8333C33.3334 23.0435 32.4554 25.1631 30.8926 26.7259C29.3298 28.2887 27.2102 29.1667 25 29.1667ZM25 16.6667C22.6989 16.6667 20.8334 18.5321 20.8334 20.8333C20.8334 23.1345 22.6989 25 25 25C27.3012 25 29.1667 23.1345 29.1667 20.8333C29.1667 18.5321 27.3012 16.6667 25 16.6667Z" fill="#ED6C00"/>
</svg>
