<svg width="78" height="78" viewBox="0 0 78 78" fill="none" xmlns="http://www.w3.org/2000/svg">
<path fill-rule="evenodd" clip-rule="evenodd" d="M39 78C60.5392 78 78 60.5392 78 39C78 17.4609 60.5392 0 39 0C17.4609 0 0 17.4609 0 39C0 60.5392 17.4609 78 39 78ZM57.0721 35.5528L42.4471 20.9278C40.5434 19.0241 37.4567 19.0241 35.5528 20.9278C33.6491 22.8317 33.6491 25.9183 35.5528 27.8222L41.8558 34.125H24.375C21.6826 34.125 19.5 36.3076 19.5 39C19.5 41.6925 21.6826 43.875 24.375 43.875H41.8558L35.5528 50.1779C33.6491 52.0816 33.6491 55.1684 35.5528 57.0721C37.4567 58.9758 40.5434 58.9758 42.4471 57.0721L57.0721 42.4471C58.9758 40.5434 58.9758 37.4567 57.0721 35.5528Z" fill="white"/>
</svg>
