<?xml version="1.0" encoding="UTF-8"?>
<svg id="fbh_vk" viewBox="0 0 50 50">
  <circle cx="25" cy="25" r="25" fill="#33658c"></circle>
  <path d="M35,28.9c-0.5-0.6-1.1-1.2-1.7-1.8c-0.2-0.2-0.4-0.4-0.6-0.6c-0.4-0.2-0.6-0.7-0.4-1.2 c0.1-0.1,0.1-0.2,0.2-0.3c0.3-0.5,0.7-0.9,1-1.3c0.3-0.4,0.6-0.8,0.9-1.2l0.1-0.1c0.6-0.8,1.1-1.7,1.5-2.6c0.1-0.3,0.1-0.7,0-1 c-0.2-0.3-0.5-0.4-0.8-0.5c-0.1,0-0.3,0-0.4,0H31c-0.5,0-1,0.3-1.2,0.8c-0.2,0.5-0.4,1.1-0.7,1.6c-0.5,1.2-1.2,2.3-2.1,3.3l0,0 c-0.1,0.1-0.2,0.2-0.3,0.3c0,0,0,0,0,0c-0.2-0.2-0.3-0.5-0.3-0.8v-4.3c0,0,0,0,0,0c0-0.6-0.4-1.2-1.1-1.3c0,0,0,0-0.1,0h-3.8 c-0.5,0-1,0.2-1.3,0.6c-0.2,0.2-0.3,0.5-0.1,0.7c0.1,0.1,0.3,0.2,0.4,0.2c0.5,0.1,0.8,0.4,0.8,0.9c0.1,1,0.2,2,0.1,3 c0,0.3-0.1,0.5-0.2,0.8c0,0.1-0.1,0.2-0.2,0.2c-0.1,0-0.2,0-0.2-0.1c-0.3-0.2-0.6-0.5-0.8-0.9c-0.9-1.3-1.6-2.7-2.2-4.2 c-0.2-0.5-0.7-0.9-1.2-0.9c-0.6,0-1.2,0-1.7,0c-0.6,0-1.1,0-1.6,0c-0.4,0-0.7,0.1-0.9,0.4c-0.2,0.3-0.2,0.7,0,1 c1.2,2.8,2.6,5.4,4.3,7.8c0.9,1.3,2,2.4,3.4,3.2c1.4,0.8,2.9,1.2,4.5,1.1c0.2,0,0.4,0,0.6,0c0.7,0.1,1.3-0.4,1.4-1 c0-0.1,0-0.2,0-0.4c0-0.5,0.1-1,0.3-1.5c0-0.2,0.2-0.3,0.3-0.3c0.1,0,0.2,0.1,0.3,0.1c0.2,0.1,0.4,0.3,0.5,0.5 c0.1,0.2,0.3,0.3,0.4,0.5c0.3,0.3,0.6,0.7,0.9,1c0.6,0.7,1.5,1.1,2.4,1H35c0.3,0,0.6-0.2,0.8-0.5c0.2-0.4,0.2-0.9,0-1.3 C35.6,29.7,35.3,29.3,35,28.9z" fill="#fff"></path>
</svg>
