<svg xmlns="http://www.w3.org/2000/svg" viewBox="0 0 50 50"><circle cx="25" cy="25" r="25" fill="#3cb656"></circle><path d="M10,40l2.2-8c-4.3-7.4-1.8-16.8,5.6-21.1s16.8-1.8,21.1,5.6s1.8,16.8-5.6,21.1 c-2.4,1.4-5,2.1-7.7,2.1h0c-2.6,0-5.1-0.6-7.4-1.9C18.2,37.9,10,40,10,40z M18.6,35.1l0.5,0.3c2,1.2,4.2,1.8,6.5,1.8h0 c7.1,0,12.8-5.7,12.8-12.8c0-7.1-5.8-12.8-12.8-12.8c0,0,0,0,0,0c-7,0-12.8,5.6-12.8,12.7c0,2.4,0.7,4.8,2,6.9l0.3,0.5l-1.3,4.7 C13.7,36.4,18.6,35.1,18.6,35.1z M33.3,28c-0.2-0.2-0.5-0.4-0.7-0.4c-0.4-0.2-2.3-1.1-2.6-1.2c-0.3-0.2-0.6-0.1-0.8,0.1 c0,0,0,0,0,0c-0.3,0.4-1,1.2-1.2,1.5c-0.2,0.3-0.6,0.3-0.8,0.1c0,0,0,0,0,0c-1.1-0.4-2.2-1.1-3.1-1.9c-0.8-0.8-1.6-1.7-2.1-2.7 c-0.2-0.3-0.1-0.6,0.2-0.8c0,0,0,0,0,0c0.2-0.2,0.4-0.4,0.6-0.7c0.2-0.2,0.3-0.4,0.4-0.6c0.1-0.2,0.1-0.5,0-0.7 c-0.1-0.2-0.9-2.1-1.2-2.9c-0.1-0.4-0.4-0.7-0.9-0.7c0,0,0,0,0,0c-0.2,0-0.5,0-0.7,0c-0.4,0-0.8,0.2-1,0.5c-0.9,0.8-1.4,2-1.4,3.2 c0.1,1.4,0.7,2.8,1.6,4c0.2,0.3,2.7,4.1,6.6,5.8c0.7,0.3,1.5,0.6,2.2,0.8c0.8,0.2,1.6,0.3,2.4,0.2c1.1-0.2,2-0.9,2.6-1.8 C33.4,29.3,33.4,28.6,33.3,28z" fill="#fff"></path>
</svg>